<?xml version="1.0" encoding="UTF-8"?> <svg xmlns="http://www.w3.org/2000/svg" viewBox="0 0 1345 517" fill="none"><path d="M254.061 167.162C225.249 141.47 191.25 132.089 166.52 146.36C131.461 166.587 128.287 226.671 159.427 280.568C179.894 316.007 210.11 339.941 238.364 346.432" stroke="#CDE7FE" stroke-width="36.3286" stroke-linecap="round" stroke-linejoin="round"></path><path d="M222.881 207.322C191.74 261.219 194.915 321.302 229.974 341.529C265.032 361.756 318.698 334.464 349.838 280.567C380.979 226.67 377.804 166.586 342.74 146.359C307.692 126.132 254.021 153.424 222.881 207.322Z" stroke="white" stroke-width="36.3286" stroke-linecap="round" stroke-linejoin="round"></path><path d="M664.272 123.977C674.787 123.977 684.222 126.422 692.551 131.332C700.923 136.246 707.516 143.337 712.33 152.572C717.196 161.793 719.605 172.855 719.605 185.717C719.605 198.578 717.195 209.657 712.331 218.915L712.332 218.916C707.518 228.114 700.924 235.187 692.552 240.101L692.551 240.1C684.222 245.01 674.787 247.456 664.272 247.456C653.757 247.456 644.302 245.01 635.936 240.101L635.931 240.098C627.599 235.146 621.008 228.056 616.156 218.861L616.154 218.856C611.329 209.599 608.939 198.54 608.939 185.717C608.939 172.856 611.329 161.796 616.155 152.575V152.574C621.007 143.34 627.599 136.247 635.934 131.333L635.936 131.332C644.302 126.422 653.757 123.977 664.272 123.977ZM506.716 125.593C508.411 125.593 509.785 126.967 509.785 128.662V242.771C509.785 244.466 508.411 245.84 506.716 245.84H489.568C487.874 245.84 486.5 244.466 486.5 242.771V146.438C486.5 145.874 486.042 145.415 485.477 145.415H437.855C437.291 145.415 436.833 145.874 436.833 146.438V242.771C436.833 244.466 435.458 245.84 433.764 245.84H416.616C414.921 245.84 413.547 244.466 413.547 242.771V128.662C413.547 126.967 414.921 125.593 416.616 125.593H506.716ZM565.696 125.593C574.9 125.593 582.7 127.309 589.045 130.799H589.044C595.401 134.274 600.222 139.068 603.476 145.175L603.778 145.744C606.86 151.658 608.39 158.334 608.39 165.747C608.39 173.475 606.761 180.38 603.476 186.436C600.182 192.507 595.321 197.281 588.925 200.756L588.92 200.758C582.501 204.205 574.648 205.901 565.408 205.901H543.807V242.771C543.807 244.466 542.432 245.84 540.737 245.84H523.417C521.722 245.84 520.348 244.466 520.348 242.771V128.662C520.348 126.967 521.722 125.593 523.417 125.593H565.696ZM664.272 145.242C658.025 145.242 652.546 146.792 647.803 149.868L647.798 149.871C643.065 152.903 639.318 157.412 636.577 163.457C633.883 169.445 632.513 176.853 632.513 185.717C632.513 194.579 633.882 202.005 636.576 208.032L636.836 208.591C639.551 214.317 643.21 218.644 647.798 221.62L648.245 221.9C652.886 224.753 658.218 226.191 664.272 226.191C670.523 226.191 676.003 224.659 680.747 221.62C685.481 218.549 689.208 214.04 691.909 208.037L691.91 208.034C694.643 202.007 696.032 194.58 696.032 185.717C696.032 176.853 694.643 169.446 691.911 163.459L691.908 163.452C689.206 157.41 685.479 152.902 680.747 149.871L680.742 149.868C675.998 146.792 670.52 145.242 664.272 145.242ZM543.807 186.252H562.522C567.722 186.252 571.887 185.346 575.076 183.606C578.292 181.853 580.637 179.461 582.153 176.429L582.158 176.42C583.728 173.353 584.527 169.804 584.527 165.747C584.527 161.69 583.728 158.162 582.16 155.137L582.156 155.128C580.645 152.141 578.287 149.808 575.038 148.129L575.026 148.123C571.835 146.419 567.649 145.53 562.406 145.53H543.807V186.252Z" fill="white" stroke="white" stroke-width="2.0459" stroke-linejoin="round"></path><path d="M444.748 364.946C437.19 364.946 430.682 363.162 425.223 359.593C419.765 356.024 415.566 351.107 412.627 344.844C409.688 338.581 408.218 331.425 408.218 323.377C408.218 315.19 409.723 307.964 412.732 301.701C415.776 295.403 420.01 290.486 425.433 286.952C430.892 283.383 437.26 281.599 444.538 281.599C450.207 281.599 455.315 282.649 459.864 284.748C464.413 286.847 468.139 289.787 471.043 293.566C473.948 297.345 475.75 301.753 476.45 306.792H464.063C463.118 303.118 461.019 299.864 457.765 297.03C454.545 294.16 450.207 292.726 444.748 292.726C439.919 292.726 435.686 293.985 432.047 296.505C428.443 298.989 425.626 302.506 423.596 307.054C421.602 311.568 420.605 316.869 420.605 322.958C420.605 329.186 421.584 334.609 423.544 339.228C425.538 343.847 428.338 347.433 431.942 349.988C435.581 352.542 439.849 353.819 444.748 353.819C447.967 353.819 450.889 353.259 453.513 352.14C456.138 351.02 458.359 349.41 460.179 347.311C461.998 345.212 463.293 342.692 464.063 339.753H476.45C475.75 344.512 474.018 348.798 471.253 352.612C468.524 356.391 464.903 359.4 460.389 361.64C455.91 363.844 450.697 364.946 444.748 364.946ZM482.733 363.267V282.649H546.136V363.267H533.749V294.195H495.12V363.267H482.733ZM589.684 364.946C582.406 364.946 576.02 363.214 570.527 359.75C565.068 356.286 560.8 351.44 557.72 345.212C554.676 338.983 553.154 331.705 553.154 323.377C553.154 314.98 554.676 307.649 557.72 301.386C560.8 295.123 565.068 290.259 570.527 286.795C576.02 283.331 582.406 281.599 589.684 281.599C596.962 281.599 603.331 283.331 608.789 286.795C614.283 290.259 618.551 295.123 621.596 301.386C624.675 307.649 626.214 314.98 626.214 323.377C626.214 331.705 624.675 338.983 621.596 345.212C618.551 351.44 614.283 356.286 608.789 359.75C603.331 363.214 596.962 364.946 589.684 364.946ZM589.684 353.819C595.213 353.819 599.762 352.402 603.331 349.568C606.9 346.734 609.541 343.007 611.256 338.388C612.97 333.77 613.828 328.766 613.828 323.377C613.828 317.989 612.97 312.968 611.256 308.314C609.541 303.66 606.9 299.899 603.331 297.03C599.762 294.16 595.213 292.726 589.684 292.726C584.156 292.726 579.607 294.16 576.038 297.03C572.469 299.899 569.827 303.66 568.113 308.314C566.398 312.968 565.541 317.989 565.541 323.377C565.541 328.766 566.398 333.77 568.113 338.388C569.827 343.007 572.469 346.734 576.038 349.568C579.607 352.402 584.156 353.819 589.684 353.819ZM633.298 363.267V282.649H645.685V317.709H653.873L682.845 282.649H698.8L666.259 321.488L699.22 363.267H683.265L656.812 329.256H645.685V363.267H633.298ZM730.29 364.946C723.012 364.946 716.627 363.214 711.133 359.75C705.674 356.286 701.406 351.44 698.326 345.212C695.282 338.983 693.76 331.705 693.76 323.377C693.76 314.98 695.282 307.649 698.326 301.386C701.406 295.123 705.674 290.259 711.133 286.795C716.627 283.331 723.012 281.599 730.29 281.599C737.568 281.599 743.937 283.331 749.395 286.795C754.889 290.259 759.157 295.123 762.202 301.386C765.281 307.649 766.82 314.98 766.82 323.377C766.82 331.705 765.281 338.983 762.202 345.212C759.157 351.44 754.889 356.286 749.395 359.75C743.937 363.214 737.568 364.946 730.29 364.946ZM730.29 353.819C735.819 353.819 740.368 352.402 743.937 349.568C747.506 346.734 750.147 343.007 751.862 338.388C753.576 333.77 754.434 328.766 754.434 323.377C754.434 317.989 753.576 312.968 751.862 308.314C750.147 303.66 747.506 299.899 743.937 297.03C740.368 294.16 735.819 292.726 730.29 292.726C724.762 292.726 720.213 294.16 716.644 297.03C713.075 299.899 710.433 303.66 708.719 308.314C707.004 312.968 706.147 317.989 706.147 323.377C706.147 328.766 707.004 333.77 708.719 338.388C710.433 343.007 713.075 346.734 716.644 349.568C720.213 352.402 724.762 353.819 730.29 353.819ZM786.291 345.002L825.13 282.649H839.406V363.267H827.02V300.914L788.39 363.267H773.904V282.649H786.291V345.002ZM816.943 255.776H828.489C828.489 261.444 826.53 266.081 822.611 269.685C818.692 273.289 813.374 275.091 806.655 275.091C800.042 275.091 794.776 273.289 790.857 269.685C786.973 266.081 785.031 261.444 785.031 255.776H796.578C796.578 258.505 797.33 260.902 798.835 262.966C800.375 265.031 802.981 266.063 806.655 266.063C810.329 266.063 812.954 265.031 814.528 262.966C816.138 260.902 816.943 258.505 816.943 255.776ZM883.021 364.946C875.463 364.946 868.954 363.162 863.496 359.593C858.037 356.024 853.838 351.107 850.899 344.844C847.96 338.581 846.49 331.425 846.49 323.377C846.49 315.19 847.995 307.964 851.004 301.701C854.048 295.403 858.282 290.486 863.706 286.952C869.164 283.383 875.533 281.599 882.811 281.599C888.479 281.599 893.588 282.649 898.136 284.748C902.685 286.847 906.412 289.787 909.316 293.566C912.22 297.345 914.022 301.753 914.722 306.792H902.335C901.391 303.118 899.291 299.864 896.037 297.03C892.818 294.16 888.479 292.726 883.021 292.726C878.192 292.726 873.958 293.985 870.319 296.505C866.715 298.989 863.898 302.506 861.869 307.054C859.874 311.568 858.877 316.869 858.877 322.958C858.877 329.186 859.857 334.609 861.816 339.228C863.811 343.847 866.61 347.433 870.214 349.988C873.853 352.542 878.122 353.819 883.021 353.819C886.24 353.819 889.161 353.259 891.786 352.14C894.41 351.02 896.632 349.41 898.451 347.311C900.271 345.212 901.565 342.692 902.335 339.753H914.722C914.022 344.512 912.29 348.798 909.526 352.612C906.797 356.391 903.175 359.4 898.661 361.64C894.182 363.844 888.969 364.946 883.021 364.946ZM914.655 294.195V282.649H980.157V294.195H953.704V363.267H941.317V294.195H914.655ZM986.401 363.267V282.649H1019.36C1028.04 282.649 1034.93 284.608 1040.04 288.527C1045.15 292.446 1047.7 297.624 1047.7 304.063C1047.7 308.961 1046.25 312.758 1043.35 315.452C1040.44 318.111 1036.72 319.913 1032.17 320.858C1035.14 321.278 1038.03 322.328 1040.83 324.007C1043.66 325.687 1046.01 327.996 1047.86 330.935C1049.72 333.84 1050.64 337.409 1050.64 341.642C1050.64 345.771 1049.59 349.463 1047.49 352.717C1045.39 355.971 1042.39 358.543 1038.47 360.432C1034.55 362.322 1029.86 363.267 1024.4 363.267H986.401ZM998.158 351.93H1024.4C1028.67 351.93 1032.01 350.915 1034.43 348.886C1036.84 346.856 1038.05 344.092 1038.05 340.593C1038.05 336.429 1036.84 333.157 1034.43 330.778C1032.01 328.364 1028.67 327.156 1024.4 327.156H998.158V351.93ZM998.158 316.449H1019.36C1022.69 316.449 1025.54 315.994 1027.92 315.085C1030.3 314.14 1032.12 312.81 1033.38 311.096C1034.67 309.346 1035.32 307.282 1035.32 304.903C1035.32 301.508 1033.9 298.849 1031.07 296.925C1028.23 294.965 1024.33 293.985 1019.36 293.985H998.158V316.449ZM1069.96 345.002L1108.8 282.649H1123.07V363.267H1110.69V300.914L1072.06 363.267H1057.57V282.649H1069.96V345.002ZM1167.74 364.946C1159.97 364.946 1153.27 363.232 1147.63 359.803C1142.04 356.338 1137.71 351.51 1134.67 345.316C1131.66 339.088 1130.16 331.845 1130.16 323.587C1130.16 315.33 1131.66 308.052 1134.67 301.753C1137.71 295.42 1141.95 290.486 1147.37 286.952C1152.83 283.383 1159.2 281.599 1166.48 281.599C1170.68 281.599 1174.82 282.299 1178.92 283.698C1183.01 285.098 1186.74 287.372 1190.09 290.521C1193.45 293.636 1196.13 297.764 1198.13 302.908C1200.12 308.052 1201.12 314.385 1201.12 321.908V327.156H1138.97V316.449H1188.52C1188.52 311.901 1187.61 307.842 1185.79 304.273C1184.01 300.704 1181.45 297.887 1178.13 295.822C1174.84 293.758 1170.96 292.726 1166.48 292.726C1161.54 292.726 1157.27 293.95 1153.67 296.4C1150.1 298.814 1147.35 301.963 1145.43 305.847C1143.51 309.731 1142.54 313.895 1142.54 318.339V325.477C1142.54 331.565 1143.59 336.726 1145.69 340.96C1147.83 345.159 1150.78 348.361 1154.56 350.565C1158.34 352.734 1162.73 353.819 1167.74 353.819C1170.99 353.819 1173.93 353.364 1176.55 352.455C1179.21 351.51 1181.5 350.11 1183.43 348.256C1185.35 346.366 1186.84 344.022 1187.89 341.223L1199.86 344.582C1198.6 348.641 1196.48 352.21 1193.51 355.289C1190.53 358.333 1186.86 360.712 1182.48 362.427C1178.11 364.106 1173.19 364.946 1167.74 364.946Z" fill="white"></path><path d="M915.05 241.343H917.634L926.521 262.682H926.737L935.624 241.343H938.208V265.84H936.103V246.068H935.911L927.646 265.84H925.612L917.347 246.068H917.156V265.84H915.05V241.343ZM949.012 266.223C947.297 266.223 945.814 265.824 944.562 265.026C943.31 264.221 942.341 263.109 941.655 261.689C940.977 260.262 940.639 258.619 940.639 256.761C940.639 254.911 940.977 253.268 941.655 251.833C942.341 250.39 943.286 249.261 944.49 248.448C945.702 247.627 947.102 247.216 948.689 247.216C949.685 247.216 950.646 247.399 951.571 247.766C952.496 248.125 953.326 248.679 954.059 249.429C954.801 250.17 955.387 251.107 955.818 252.24C956.248 253.364 956.463 254.696 956.463 256.235V257.287H942.11V255.409H954.287C954.287 254.229 954.047 253.169 953.569 252.228C953.098 251.279 952.44 250.529 951.595 249.979C950.758 249.429 949.789 249.154 948.689 249.154C947.524 249.154 946.5 249.465 945.614 250.087C944.729 250.709 944.036 251.53 943.533 252.551C943.039 253.571 942.788 254.688 942.78 255.9V257.024C942.78 258.484 943.031 259.759 943.533 260.852C944.044 261.936 944.765 262.778 945.698 263.376C946.631 263.974 947.736 264.273 949.012 264.273C949.881 264.273 950.642 264.137 951.296 263.866C951.958 263.595 952.512 263.232 952.959 262.778C953.413 262.315 953.756 261.809 953.987 261.259L956.009 261.916C955.73 262.69 955.271 263.404 954.633 264.058C954.003 264.711 953.214 265.238 952.265 265.636C951.324 266.027 950.24 266.223 949.012 266.223ZM956.284 271.067V263.83H957.875C958.273 263.384 958.62 262.901 958.915 262.383C959.21 261.865 959.465 261.275 959.681 260.613C959.904 259.943 960.091 259.165 960.243 258.28C960.394 257.387 960.522 256.346 960.626 255.158L961.296 247.467H972.168V263.83H974.896V271.067H972.767V265.84H958.425V271.067H956.284ZM960.327 263.83H970.039V249.477H963.281L962.731 255.158C962.54 257.088 962.268 258.771 961.918 260.206C961.567 261.641 961.036 262.849 960.327 263.83ZM978.388 262.814L988.089 247.467H990.637V265.84H988.507V250.493L978.843 265.84H976.259V247.467H978.388V262.814ZM1007.5 247.467V263.818H1009.45V271.785H1007.32V265.84H993.588V247.467H995.729V263.83H1005.36V247.467H1007.5ZM1013.43 262.814L1023.13 247.467H1025.67V265.84H1023.54V250.493L1013.88 265.84H1011.3V247.467H1013.43V262.814ZM1041.01 255.661V257.67H1030.2V255.661H1041.01ZM1030.73 247.467V265.84H1028.6V247.467H1030.73ZM1042.57 247.467V265.84H1040.44V247.467H1042.57ZM1052.72 266.223C1051.08 266.223 1049.65 265.812 1048.43 264.991C1047.21 264.169 1046.27 263.045 1045.6 261.617C1044.93 260.19 1044.6 258.563 1044.6 256.737C1044.6 254.895 1044.94 253.256 1045.62 251.821C1046.3 250.386 1047.25 249.261 1048.46 248.448C1049.67 247.627 1051.08 247.216 1052.69 247.216C1053.91 247.216 1055.03 247.455 1056.02 247.934C1057.02 248.404 1057.84 249.07 1058.49 249.931C1059.14 250.784 1059.55 251.781 1059.72 252.921H1057.57C1057.34 251.885 1056.8 251 1055.95 250.266C1055.11 249.524 1054.03 249.154 1052.72 249.154C1051.55 249.154 1050.51 249.473 1049.61 250.111C1048.71 250.741 1048 251.622 1047.49 252.754C1046.99 253.878 1046.74 255.182 1046.74 256.665C1046.74 258.157 1046.99 259.476 1047.48 260.625C1047.98 261.765 1048.67 262.658 1049.56 263.304C1050.46 263.95 1051.52 264.273 1052.72 264.273C1053.53 264.273 1054.28 264.121 1054.95 263.818C1055.62 263.507 1056.19 263.069 1056.64 262.503C1057.11 261.936 1057.42 261.263 1057.58 260.481H1059.73C1059.57 261.59 1059.18 262.578 1058.55 263.448C1057.92 264.309 1057.11 264.987 1056.12 265.481C1055.13 265.975 1054 266.223 1052.72 266.223ZM1061.6 265.84V247.467H1063.73V255.732H1065.73L1072.56 247.467H1075.31L1067.94 256.307L1075.47 265.84H1072.72L1066.38 257.742H1063.73V265.84H1061.6ZM1078.4 262.814L1088.1 247.467H1090.65V265.84H1088.52V250.493L1078.86 265.84H1076.27V247.467H1078.4V262.814ZM1095.71 262.814L1105.41 247.467H1107.95V265.84H1105.83V250.493L1096.16 265.84H1093.58V247.467H1095.71V262.814ZM1102.97 241.343H1104.98C1104.98 242.483 1104.6 243.408 1103.84 244.118C1103.09 244.828 1102.07 245.182 1100.77 245.182C1099.48 245.182 1098.47 244.828 1097.72 244.118C1096.97 243.408 1096.59 242.483 1096.59 241.343H1098.6C1098.6 241.965 1098.77 242.491 1099.1 242.922C1099.45 243.344 1100 243.556 1100.77 243.556C1101.53 243.556 1102.09 243.344 1102.44 242.922C1102.79 242.491 1102.97 241.965 1102.97 241.343ZM1131.6 247.467V263.818H1133.55V271.785H1131.42V265.84H1117.68V247.467H1119.83V263.83H1129.45V247.467H1131.6ZM1142.62 266.223C1140.91 266.223 1139.43 265.824 1138.17 265.026C1136.92 264.221 1135.95 263.109 1135.27 261.689C1134.59 260.262 1134.25 258.619 1134.25 256.761C1134.25 254.911 1134.59 253.268 1135.27 251.833C1135.95 250.39 1136.9 249.261 1138.1 248.448C1139.31 247.627 1140.71 247.216 1142.3 247.216C1143.3 247.216 1144.26 247.399 1145.18 247.766C1146.11 248.125 1146.94 248.679 1147.67 249.429C1148.41 250.17 1149 251.107 1149.43 252.24C1149.86 253.364 1150.08 254.696 1150.08 256.235V257.287H1135.72V255.409H1147.9C1147.9 254.229 1147.66 253.169 1147.18 252.228C1146.71 251.279 1146.05 250.529 1145.21 249.979C1144.37 249.429 1143.4 249.154 1142.3 249.154C1141.14 249.154 1140.11 249.465 1139.23 250.087C1138.34 250.709 1137.65 251.53 1137.15 252.551C1136.65 253.571 1136.4 254.688 1136.39 255.9V257.024C1136.39 258.484 1136.64 259.759 1137.15 260.852C1137.66 261.936 1138.38 262.778 1139.31 263.376C1140.24 263.974 1141.35 264.273 1142.62 264.273C1143.49 264.273 1144.25 264.137 1144.91 263.866C1145.57 263.595 1146.12 263.232 1146.57 262.778C1147.03 262.315 1147.37 261.809 1147.6 261.259L1149.62 261.916C1149.34 262.69 1148.88 263.404 1148.25 264.058C1147.62 264.711 1146.83 265.238 1145.88 265.636C1144.94 266.027 1143.85 266.223 1142.62 266.223ZM1164.48 255.661V257.67H1153.68V255.661H1164.48ZM1154.2 247.467V265.84H1152.07V247.467H1154.2ZM1166.04 247.467V265.84H1163.91V247.467H1166.04ZM1166.44 249.477V247.467H1180.8V249.477H1174.72V265.84H1172.59V249.477H1166.44ZM1182.6 272.73V247.467H1184.67V250.972H1184.92C1185.18 250.422 1185.53 249.859 1185.98 249.285C1186.42 248.703 1187.01 248.213 1187.75 247.814C1188.49 247.415 1189.42 247.216 1190.55 247.216C1192.06 247.216 1193.39 247.615 1194.52 248.412C1195.66 249.201 1196.54 250.31 1197.17 251.737C1197.81 253.157 1198.13 254.811 1198.13 256.701C1198.13 258.599 1197.81 260.262 1197.17 261.689C1196.54 263.117 1195.66 264.229 1194.52 265.026C1193.39 265.824 1192.07 266.223 1190.57 266.223C1189.46 266.223 1188.53 266.023 1187.78 265.625C1187.04 265.226 1186.44 264.735 1185.98 264.153C1185.52 263.563 1185.17 262.989 1184.92 262.431H1184.73V272.73H1182.6ZM1184.71 256.665C1184.71 258.149 1184.93 259.464 1185.37 260.613C1185.81 261.753 1186.45 262.65 1187.28 263.304C1188.12 263.95 1189.13 264.273 1190.32 264.273C1191.54 264.273 1192.57 263.938 1193.41 263.268C1194.25 262.59 1194.89 261.677 1195.33 260.529C1195.78 259.381 1196 258.093 1196 256.665C1196 255.254 1195.78 253.982 1195.34 252.85C1194.91 251.717 1194.27 250.82 1193.43 250.158C1192.58 249.489 1191.55 249.154 1190.32 249.154C1189.12 249.154 1188.11 249.477 1187.27 250.123C1186.43 250.76 1185.79 251.646 1185.36 252.778C1184.92 253.902 1184.71 255.198 1184.71 256.665Z" fill="#FAFDFF"></path></svg> 