<svg xmlns="http://www.w3.org/2000/svg" viewBox="0 0 512 512" width="512" height="512" role="img" aria-label="ПРО Спокойствие">
  <title>ПРО Спокойствие</title>
  <!-- Знак из public/assets/logo/pro-spokoystvie-logo.svg (две петли), геометрия не изменена. -->
  <rect width="512" height="512" rx="100" fill="#2D6FA1"/>
  <g transform="translate(51.20 69.94) scale(1.51932)">
    <path fill="#FCFBF8" d="M37.6082 9.17655C72.4063 -10.9029 115.096 4.31672 146.315 32.1551C153.803 38.8317 154.46 50.3142 147.783 57.8016C141.106 65.2888 129.625 65.9458 122.138 59.2693C95.7333 35.7244 70.426 32.1828 55.7645 40.6434L55.7625 40.6443C45.3176 46.6705 37.5358 59.855 36.453 80.3465C35.3976 100.319 41.0672 124.895 54.6668 148.889L55.3202 150.031L55.3221 150.034C73.9941 182.365 100.516 202.206 122.597 207.279C132.374 209.525 138.478 219.273 136.232 229.05C133.986 238.827 124.239 244.932 114.462 242.685C80.0348 234.776 46.1241 206.75 23.8621 168.203V168.202C6.79497 138.661 -1.31991 106.712 0.174647 78.4295C1.65858 50.3482 12.9943 23.3774 37.6082 9.17655Z"/>
    <path fill="#E2C6B0" d="M153.275 11.4017C178.344 -1.34816 207.375 -5.02423 231.98 9.17416C256.597 23.3744 267.935 50.344 269.42 78.4261C270.915 106.71 262.799 138.66 245.73 168.202C228.661 197.746 205.029 220.739 179.774 233.583C155.094 246.135 126.576 249.892 102.218 236.463L101.061 235.811C76.4476 221.61 65.1119 194.64 63.6278 166.559C62.133 138.275 70.2483 106.326 87.3173 76.7835L88.1229 75.4037C105.126 46.5235 128.415 24.0453 153.275 11.4017ZM213.825 40.64C203.383 34.6136 188.056 34.4692 169.744 43.7826C151.616 53.002 132.844 70.6035 118.773 94.9574C104.701 119.312 98.8339 144.353 99.9061 164.642C100.989 185.133 108.771 198.318 119.216 204.344C129.664 210.372 144.995 210.515 163.306 201.202C181.433 191.983 200.204 174.382 214.275 150.029V150.028C228.347 125.673 234.214 100.633 233.141 80.3441C232.058 59.8533 224.275 46.6686 213.828 40.6419L213.825 40.64Z"/>
  </g>
</svg>
