<?xml version="1.0" encoding="UTF-8"?> <svg xmlns="http://www.w3.org/2000/svg" viewBox="0 0 276 62" fill="none"><g clip-path="url(#clip0_912_122)"><path d="M35.4125 11.3809C28.1078 4.86718 19.4879 2.48879 13.2181 6.10694C4.32953 11.2351 3.52482 26.4683 11.4198 40.1329C16.6088 49.1178 24.2695 55.1858 31.4328 56.8315" stroke="#CDE7FE" stroke-width="9.21045" stroke-linecap="round" stroke-linejoin="round"></path><path d="M27.5074 21.5628C19.6122 35.2274 20.4172 50.4604 29.3057 55.5885C38.194 60.7167 51.8001 53.7973 59.695 40.1328C67.5903 26.4682 66.7853 11.235 57.8955 6.10679C49.0097 0.978603 35.4024 7.89799 27.5074 21.5628Z" stroke="white" stroke-width="9.21045" stroke-linecap="round" stroke-linejoin="round"></path><path d="M139.414 0.432129C142.08 0.432129 144.472 1.05201 146.584 2.29685C148.706 3.54271 150.378 5.3405 151.598 7.68187C152.832 10.0197 153.443 12.8242 153.443 16.0852C153.443 19.3458 152.832 22.1547 151.598 24.5019L151.599 24.5022C150.378 26.8341 148.706 28.6274 146.584 29.8732L146.584 29.873C144.472 31.1178 142.08 31.738 139.414 31.738C136.748 31.738 134.351 31.1178 132.23 29.8732L132.229 29.8725C130.116 28.617 128.445 26.8194 127.215 24.4882L127.215 24.487C125.991 22.14 125.385 19.3362 125.385 16.0852C125.385 12.8245 125.991 10.0204 127.215 7.68262C128.445 5.34151 130.116 3.54296 132.229 2.29711L132.23 2.29685C134.351 1.05201 136.748 0.432129 139.414 0.432129ZM99.4686 0.841837C99.8983 0.841837 100.247 1.19019 100.247 1.61993V30.5502C100.247 30.9799 99.8983 31.3282 99.4686 31.3282H95.121C94.6915 31.3282 94.3432 30.9799 94.3432 30.5502V6.1267C94.3432 5.98371 94.2271 5.86734 94.0838 5.86734H82.0101C81.8671 5.86734 81.751 5.98371 81.751 6.1267V30.5502C81.751 30.9799 81.4024 31.3282 80.9729 31.3282H76.6254C76.1956 31.3282 75.8473 30.9799 75.8473 30.5502V1.61993C75.8473 1.19019 76.1956 0.841837 76.6254 0.841837H99.4686ZM114.422 0.841837C116.755 0.841837 118.733 1.2769 120.342 2.16172C121.953 3.04274 123.175 4.25818 124 5.80649L124.077 5.95075C124.858 7.45014 125.246 9.14271 125.246 11.0221C125.246 12.9814 124.833 14.7321 124 16.2675C123.165 17.8067 121.933 19.017 120.311 19.898L120.31 19.8985C118.682 20.7725 116.691 21.2024 114.349 21.2024H108.872V30.5502C108.872 30.9799 108.524 31.3282 108.094 31.3282H103.703C103.273 31.3282 102.925 30.9799 102.925 30.5502V1.61993C102.925 1.19019 103.273 0.841837 103.703 0.841837H114.422ZM139.414 5.82348C137.83 5.82348 136.441 6.21645 135.239 6.99631L135.237 6.99708C134.037 7.76578 133.087 8.90896 132.392 10.4416C131.709 11.9597 131.362 13.8379 131.362 16.0852C131.362 18.332 131.709 20.2147 132.392 21.7427L132.458 21.8845C133.146 23.3362 134.074 24.4332 135.237 25.1877L135.351 25.2587C136.527 25.982 137.879 26.3466 139.414 26.3466C140.999 26.3466 142.388 25.9582 143.591 25.1877C144.791 24.4091 145.736 23.2659 146.421 21.744L146.421 21.7432C147.114 20.2152 147.466 18.3322 147.466 16.0852C147.466 13.8379 147.114 11.96 146.421 10.4421L146.421 10.4403C145.736 8.90845 144.791 7.76553 143.591 6.99708L143.59 6.99631C142.387 6.21645 140.998 5.82348 139.414 5.82348ZM108.872 16.2208H113.617C114.936 16.2208 115.991 15.9911 116.8 15.55C117.615 15.1055 118.21 14.4991 118.594 13.7304L118.596 13.7281C118.994 12.9505 119.196 12.0507 119.196 11.0221C119.196 9.99356 118.994 9.0991 118.596 8.33217L118.595 8.32989C118.212 7.57259 117.614 6.9811 116.79 6.55542L116.787 6.5539C115.978 6.12189 114.917 5.8965 113.588 5.8965H108.872V16.2208Z" fill="white" stroke="white" stroke-width="0.5187" stroke-linejoin="round"></path><path d="M83.7577 61.5252C81.8415 61.5252 80.1916 61.0729 78.8075 60.1681C77.4237 59.2632 76.3592 58.0166 75.614 56.4287C74.8689 54.8409 74.4962 53.0266 74.4962 50.9862C74.4962 48.9105 74.8778 47.0785 75.6407 45.4906C76.4124 43.8939 77.4859 42.6472 78.8608 41.7513C80.2448 40.8464 81.8593 40.3941 83.7045 40.3941C85.1418 40.3941 86.4368 40.6603 87.5901 41.1925C88.7434 41.7246 89.6881 42.47 90.4243 43.4281C91.1608 44.3862 91.6177 45.5038 91.7952 46.7813H88.6547C88.4151 45.8499 87.8829 45.0249 87.058 44.3064C86.2416 43.5787 85.1418 43.2152 83.7577 43.2152C82.5334 43.2152 81.4602 43.5344 80.5376 44.1733C79.6239 44.803 78.9097 45.6947 78.395 46.8478C77.8895 47.9922 77.6367 49.3362 77.6367 50.8799C77.6367 52.4589 77.8849 53.8338 78.3818 55.0049C78.8874 56.1759 79.5973 57.0851 80.511 57.7329C81.4336 58.3804 82.5157 58.7042 83.7577 58.7042C84.5738 58.7042 85.3147 58.5622 85.9799 58.2785C86.6455 57.9945 87.2085 57.5863 87.67 57.0542C88.1311 56.522 88.4595 55.8831 88.6547 55.138H91.7952C91.6177 56.3445 91.1786 57.4312 90.4776 58.3982C89.7857 59.3563 88.8677 60.1191 87.7232 60.687C86.5876 61.2458 85.266 61.5252 83.7577 61.5252ZM93.3881 61.0995V40.6603H109.463V61.0995H106.322V43.5876H96.5286V61.0995H93.3881ZM120.504 61.5252C118.658 61.5252 117.039 61.0861 115.647 60.2079C114.263 59.3296 113.181 58.101 112.4 56.522C111.628 54.9428 111.242 53.0976 111.242 50.9862C111.242 48.8573 111.628 46.9986 112.4 45.4107C113.181 43.8229 114.263 42.5897 115.647 41.7115C117.039 40.8332 118.658 40.3941 120.504 40.3941C122.349 40.3941 123.964 40.8332 125.347 41.7115C126.74 42.5897 127.822 43.8229 128.594 45.4107C129.375 46.9986 129.765 48.8573 129.765 50.9862C129.765 53.0976 129.375 54.9428 128.594 56.522C127.822 58.101 126.74 59.3296 125.347 60.2079C123.964 61.0861 122.349 61.5252 120.504 61.5252ZM120.504 58.7042C121.905 58.7042 123.059 58.3449 123.964 57.6264C124.868 56.9079 125.538 55.963 125.973 54.7919C126.407 53.6211 126.625 52.3524 126.625 50.9862C126.625 49.6201 126.407 48.3471 125.973 47.1672C125.538 45.9873 124.868 45.0337 123.964 44.3064C123.059 43.5787 121.905 43.2152 120.504 43.2152C119.102 43.2152 117.949 43.5787 117.044 44.3064C116.139 45.0337 115.469 45.9873 115.035 47.1672C114.6 48.3471 114.383 49.6201 114.383 50.9862C114.383 52.3524 114.6 53.6211 115.035 54.7919C115.469 55.963 116.139 56.9079 117.044 57.6264C117.949 58.3449 119.102 58.7042 120.504 58.7042ZM131.561 61.0995V40.6603H134.702V49.5491H136.778L144.123 40.6603H148.168L139.918 50.5072L148.274 61.0995H144.229L137.523 52.4767H134.702V61.0995H131.561ZM156.152 61.5252C154.306 61.5252 152.688 61.0861 151.295 60.2079C149.911 59.3296 148.829 58.101 148.048 56.522C147.276 54.9428 146.89 53.0976 146.89 50.9862C146.89 48.8573 147.276 46.9986 148.048 45.4107C148.829 43.8229 149.911 42.5897 151.295 41.7115C152.688 40.8332 154.306 40.3941 156.152 40.3941C157.997 40.3941 159.612 40.8332 160.995 41.7115C162.388 42.5897 163.47 43.8229 164.242 45.4107C165.023 46.9986 165.413 48.8573 165.413 50.9862C165.413 53.0976 165.023 54.9428 164.242 56.522C163.47 58.101 162.388 59.3296 160.995 60.2079C159.612 61.0861 157.997 61.5252 156.152 61.5252ZM156.152 58.7042C157.553 58.7042 158.707 58.3449 159.612 57.6264C160.516 56.9079 161.186 55.963 161.621 54.7919C162.055 53.6211 162.273 52.3524 162.273 50.9862C162.273 49.6201 162.055 48.3471 161.621 47.1672C161.186 45.9873 160.516 45.0337 159.612 44.3064C158.707 43.5787 157.553 43.2152 156.152 43.2152C154.75 43.2152 153.597 43.5787 152.692 44.3064C151.787 45.0337 151.117 45.9873 150.683 47.1672C150.248 48.3471 150.031 49.6201 150.031 50.9862C150.031 52.3524 150.248 53.6211 150.683 54.7919C151.117 55.963 151.787 56.9079 152.692 57.6264C153.597 58.3449 154.75 58.7042 156.152 58.7042ZM170.35 56.4688L180.197 40.6603H183.816V61.0995H180.676V45.2911L170.882 61.0995H167.209V40.6603H170.35V56.4688ZM178.121 33.8472H181.048C181.048 35.2842 180.552 36.4598 179.558 37.3735C178.564 38.2873 177.216 38.7441 175.513 38.7441C173.836 38.7441 172.501 38.2873 171.507 37.3735C170.523 36.4598 170.03 35.2842 170.03 33.8472H172.958C172.958 34.5391 173.148 35.1468 173.53 35.6701C173.92 36.1936 174.581 36.4552 175.513 36.4552C176.444 36.4552 177.11 36.1936 177.509 35.6701C177.917 35.1468 178.121 34.5391 178.121 33.8472ZM194.874 61.5252C192.958 61.5252 191.307 61.0729 189.924 60.1681C188.54 59.2632 187.475 58.0166 186.73 56.4287C185.985 54.8409 185.612 53.0266 185.612 50.9862C185.612 48.9105 185.994 47.0785 186.756 45.4906C187.528 43.8939 188.602 42.6472 189.977 41.7513C191.361 40.8464 192.975 40.3941 194.821 40.3941C196.258 40.3941 197.553 40.6603 198.706 41.1925C199.859 41.7246 200.804 42.47 201.54 43.4281C202.277 44.3862 202.734 45.5038 202.911 46.7813H199.77C199.531 45.8499 198.999 45.0249 198.174 44.3064C197.358 43.5787 196.258 43.2152 194.874 43.2152C193.649 43.2152 192.576 43.5344 191.653 44.1733C190.74 44.803 190.025 45.6947 189.511 46.8478C189.005 47.9922 188.753 49.3362 188.753 50.8799C188.753 52.4589 189.001 53.8338 189.498 55.0049C190.003 56.1759 190.713 57.0851 191.627 57.7329C192.549 58.3804 193.632 58.7042 194.874 58.7042C195.69 58.7042 196.43 58.5622 197.096 58.2785C197.761 57.9945 198.325 57.5863 198.786 57.0542C199.247 56.522 199.575 55.8831 199.77 55.138H202.911C202.734 56.3445 202.294 57.4312 201.594 58.3982C200.902 59.3563 199.983 60.1191 198.839 60.687C197.703 61.2458 196.382 61.5252 194.874 61.5252ZM202.894 43.5876V40.6603H219.501V43.5876H212.794V61.0995H209.654V43.5876H202.894ZM221.084 61.0995V40.6603H229.44C231.641 40.6603 233.387 41.157 234.683 42.1506C235.979 43.1442 236.625 44.457 236.625 46.0894C236.625 47.3312 236.257 48.2939 235.522 48.9769C234.784 49.6511 233.841 50.1079 232.688 50.3475C233.441 50.454 234.173 50.7202 234.883 51.1459C235.601 51.5718 236.197 52.1572 236.666 52.9023C237.137 53.6389 237.37 54.5437 237.37 55.6169C237.37 56.6637 237.104 57.5998 236.572 58.4248C236.039 59.2498 235.279 59.9019 234.285 60.3808C233.291 60.8599 232.102 61.0995 230.718 61.0995H221.084ZM224.065 58.2252H230.718C231.8 58.2252 232.647 57.9679 233.261 57.4535C233.872 56.9388 234.179 56.2381 234.179 55.351C234.179 54.2952 233.872 53.4657 233.261 52.8625C232.647 52.2505 231.8 51.9443 230.718 51.9443H224.065V58.2252ZM224.065 49.2297H229.44C230.284 49.2297 231.007 49.1143 231.61 48.8839C232.214 48.6443 232.675 48.3071 232.995 47.8725C233.322 47.4289 233.486 46.9056 233.486 46.3024C233.486 45.4417 233.126 44.7675 232.409 44.2797C231.689 43.7828 230.7 43.5344 229.44 43.5344H224.065V49.2297ZM242.269 56.4688L252.116 40.6603H255.734V61.0995H252.595V45.2911L242.801 61.0995H239.127V40.6603H242.269V56.4688ZM267.059 61.5252C265.089 61.5252 263.39 61.0907 261.96 60.2213C260.543 59.3428 259.445 58.1188 258.675 56.5484C257.912 54.9694 257.531 53.1331 257.531 51.0394C257.531 48.946 257.912 47.1008 258.675 45.5038C259.445 43.8982 260.52 42.6472 261.895 41.7513C263.279 40.8464 264.894 40.3941 266.74 40.3941C267.804 40.3941 268.854 40.5716 269.894 40.9263C270.93 41.2812 271.876 41.8578 272.725 42.6561C273.577 43.4459 274.257 44.4924 274.764 45.7966C275.268 47.1008 275.522 48.7064 275.522 50.6137V51.9443H259.765V49.2297H272.327C272.327 48.0766 272.097 47.0475 271.635 46.1427C271.184 45.2378 270.535 44.5236 269.693 44.0001C268.859 43.4768 267.875 43.2152 266.74 43.2152C265.487 43.2152 264.405 43.5255 263.492 44.1466C262.587 44.7587 261.89 45.557 261.403 46.5417C260.916 47.5265 260.67 48.5822 260.67 49.7089V51.5186C260.67 53.0621 260.936 54.3705 261.469 55.444C262.011 56.5086 262.759 57.3204 263.717 57.8792C264.676 58.4291 265.789 58.7042 267.059 58.7042C267.883 58.7042 268.628 58.5888 269.293 58.3583C269.967 58.1188 270.548 57.7638 271.037 57.2938C271.524 56.8146 271.901 56.2203 272.168 55.5107L275.202 56.3623C274.883 57.3914 274.346 58.2962 273.593 59.0769C272.837 59.8486 271.907 60.4518 270.796 60.8866C269.688 61.3122 268.441 61.5252 267.059 61.5252Z" fill="white"></path><path d="M202.994 30.188H203.649L205.902 35.5981H205.957L208.21 30.188H208.865V36.3987H208.332V31.3859H208.283L206.188 36.3987H205.672L203.577 31.3859H203.528V36.3987H202.994V30.188ZM211.605 36.4959C211.17 36.4959 210.794 36.3947 210.476 36.1924C210.159 35.9883 209.913 35.7064 209.739 35.3463C209.567 34.9846 209.482 34.568 209.482 34.0969C209.482 33.6279 209.567 33.2113 209.739 32.8475C209.913 32.4817 210.153 32.1955 210.458 31.9893C210.765 31.7812 211.12 31.677 211.523 31.677C211.775 31.677 212.019 31.7234 212.253 31.8164C212.488 31.9074 212.698 32.0479 212.884 32.238C213.072 32.4259 213.221 32.6635 213.33 32.9507C213.439 33.2357 213.494 33.5734 213.494 33.9636V34.2303H209.855V33.7542H212.942C212.942 33.455 212.881 33.1863 212.76 32.9477C212.641 32.7071 212.474 32.5169 212.259 32.3775C212.047 32.238 211.802 32.1683 211.523 32.1683C211.227 32.1683 210.968 32.2472 210.743 32.4049C210.519 32.5626 210.343 32.7707 210.215 33.0296C210.09 33.2882 210.027 33.5714 210.025 33.8786V34.1636C210.025 34.5338 210.088 34.857 210.215 35.1341C210.345 35.409 210.528 35.6224 210.764 35.7741C211.001 35.9257 211.281 36.0015 211.605 36.0015C211.825 36.0015 212.018 35.967 212.184 35.8983C212.351 35.8296 212.492 35.7375 212.605 35.6224C212.72 35.5051 212.807 35.3768 212.866 35.2373L213.379 35.4039C213.308 35.6001 213.191 35.7812 213.03 35.947C212.87 36.1125 212.67 36.2461 212.429 36.347C212.191 36.4462 211.916 36.4959 211.605 36.4959ZM213.448 37.724V35.8891H213.852C213.953 35.7761 214.041 35.6536 214.115 35.5223C214.19 35.391 214.255 35.2414 214.31 35.0735C214.366 34.9037 214.413 34.7064 214.452 34.4821C214.49 34.2556 214.523 33.9917 214.549 33.6905L214.719 31.7406H217.475V35.8891H218.167V37.724H217.627V36.3987H213.991V37.724H213.448ZM214.473 35.8891H216.936V32.2502H215.222L215.083 33.6905C215.034 34.1798 214.965 34.6065 214.877 34.9704C214.788 35.3342 214.653 35.6404 214.473 35.8891ZM219.052 35.6316L221.512 31.7406H222.158V36.3987H221.618V32.5078L219.168 36.3987H218.513V31.7406H219.052V35.6316ZM226.433 31.7406V35.8861H226.928V37.906H226.388V36.3987H222.906V31.7406H223.449V35.8891H225.891V31.7406H226.433ZM227.937 35.6316L230.396 31.7406H231.04V36.3987H230.5V32.5078L228.051 36.3987H227.397V31.7406H227.937V35.6316ZM234.929 33.8181V34.3274H232.188V33.8181H234.929ZM232.323 31.7406V36.3987H231.783V31.7406H232.323ZM235.324 31.7406V36.3987H234.784V31.7406H235.324ZM237.898 36.4959C237.482 36.4959 237.12 36.3917 236.81 36.1835C236.501 35.9751 236.263 35.6901 236.093 35.3281C235.923 34.9663 235.839 34.5538 235.839 34.0909C235.839 33.6238 235.925 33.2083 236.098 32.8445C236.27 32.4807 236.511 32.1955 236.818 31.9893C237.125 31.7812 237.482 31.677 237.89 31.677C238.2 31.677 238.484 31.7376 238.735 31.859C238.988 31.9782 239.196 32.147 239.361 32.3653C239.526 32.5816 239.629 32.8344 239.673 33.1234H239.127C239.069 32.8607 238.932 32.6363 238.717 32.4503C238.504 32.2621 238.23 32.1683 237.898 32.1683C237.601 32.1683 237.338 32.2492 237.109 32.411C236.881 32.5707 236.701 32.794 236.572 33.081C236.445 33.366 236.382 33.6966 236.382 34.0726C236.382 34.4509 236.445 34.7853 236.569 35.0766C236.696 35.3656 236.871 35.592 237.097 35.7558C237.325 35.9196 237.594 36.0015 237.898 36.0015C238.103 36.0015 238.293 35.9629 238.463 35.8861C238.633 35.8073 238.778 35.6962 238.892 35.5527C239.011 35.409 239.089 35.2383 239.13 35.0401H239.675C239.635 35.3212 239.536 35.5717 239.376 35.7923C239.216 36.0106 239.011 36.1825 238.76 36.3077C238.509 36.433 238.222 36.4959 237.898 36.4959ZM240.149 36.3987V31.7406H240.689V33.8361H241.196L242.928 31.7406H243.625L241.757 33.9818L243.666 36.3987H242.968L241.361 34.3457H240.689V36.3987H240.149ZM244.409 35.6316L246.868 31.7406H247.514V36.3987H246.974V32.5078L244.525 36.3987H243.869V31.7406H244.409V35.6316ZM248.797 35.6316L251.256 31.7406H251.9V36.3987H251.363V32.5078L248.911 36.3987H248.257V31.7406H248.797V35.6316ZM250.638 30.188H251.147C251.147 30.477 251.051 30.7115 250.858 30.8915C250.668 31.0715 250.41 31.1613 250.08 31.1613C249.753 31.1613 249.497 31.0715 249.307 30.8915C249.117 30.7115 249.02 30.477 249.02 30.188H249.53C249.53 30.3457 249.573 30.479 249.657 30.5883C249.745 30.6953 249.885 30.7491 250.08 30.7491C250.273 30.7491 250.415 30.6953 250.503 30.5883C250.592 30.479 250.638 30.3457 250.638 30.188ZM257.896 31.7406V35.8861H258.391V37.906H257.851V36.3987H254.367V31.7406H254.912V35.8891H257.351V31.7406H257.896ZM260.69 36.4959C260.257 36.4959 259.882 36.3947 259.562 36.1924C259.245 35.9883 258.999 35.7064 258.827 35.3463C258.654 34.9846 258.568 34.568 258.568 34.0969C258.568 33.6279 258.654 33.2113 258.827 32.8475C258.999 32.4817 259.24 32.1955 259.544 31.9893C259.851 31.7812 260.206 31.677 260.609 31.677C260.863 31.677 261.106 31.7234 261.339 31.8164C261.575 31.9074 261.786 32.0479 261.971 32.238C262.158 32.4259 262.308 32.6635 262.417 32.9507C262.526 33.2357 262.582 33.5734 262.582 33.9636V34.2303H258.941V33.7542H262.029C262.029 33.455 261.968 33.1863 261.846 32.9477C261.727 32.7071 261.56 32.5169 261.347 32.3775C261.134 32.238 260.888 32.1683 260.609 32.1683C260.315 32.1683 260.054 32.2472 259.831 32.4049C259.605 32.5626 259.43 32.7707 259.304 33.0296C259.177 33.2882 259.113 33.5714 259.111 33.8786V34.1636C259.111 34.5338 259.174 34.857 259.304 35.1341C259.433 35.409 259.615 35.6224 259.851 35.7741C260.087 35.9257 260.368 36.0015 260.69 36.0015C260.911 36.0015 261.104 35.967 261.271 35.8983C261.438 35.8296 261.578 35.7375 261.692 35.6224C261.808 35.5051 261.895 35.3768 261.953 35.2373L262.465 35.4039C262.394 35.6001 262.277 35.7812 262.118 35.947C261.958 36.1125 261.758 36.2461 261.517 36.347C261.279 36.4462 261.002 36.4959 260.69 36.4959ZM266.233 33.8181V34.3274H263.494V33.8181H266.233ZM263.626 31.7406V36.3987H263.086V31.7406H263.626ZM266.628 31.7406V36.3987H266.088V31.7406H266.628ZM266.729 32.2502V31.7406H270.37V32.2502H268.829V36.3987H268.289V32.2502H266.729ZM270.827 38.1456V31.7406H271.351V32.6292H271.415C271.481 32.4898 271.569 32.3471 271.683 32.2015C271.795 32.054 271.945 31.9297 272.132 31.8286C272.32 31.7274 272.556 31.677 272.842 31.677C273.225 31.677 273.562 31.7781 273.849 31.9802C274.138 32.1802 274.361 32.4614 274.52 32.8232C274.683 33.1832 274.764 33.6025 274.764 34.0817C274.764 34.5629 274.683 34.9846 274.52 35.3463C274.361 35.7084 274.138 35.9903 273.849 36.1924C273.562 36.3947 273.227 36.4959 272.847 36.4959C272.566 36.4959 272.33 36.4451 272.14 36.3442C271.952 36.2431 271.8 36.1186 271.683 35.971C271.567 35.8215 271.478 35.6759 271.415 35.5345H271.367V38.1456H270.827ZM271.361 34.0726C271.361 34.4488 271.417 34.7822 271.529 35.0735C271.64 35.3626 271.803 35.59 272.013 35.7558C272.226 35.9196 272.482 36.0015 272.784 36.0015C273.093 36.0015 273.354 35.9165 273.567 35.7467C273.78 35.5748 273.942 35.3433 274.054 35.0522C274.168 34.7612 274.224 34.4346 274.224 34.0726C274.224 33.7149 274.168 33.3924 274.057 33.1054C273.947 32.8181 273.785 32.5907 273.572 32.4229C273.357 32.2533 273.096 32.1683 272.784 32.1683C272.48 32.1683 272.223 32.2502 272.011 32.414C271.798 32.5755 271.635 32.8001 271.526 33.0871C271.415 33.3721 271.361 33.7007 271.361 34.0726Z" fill="#FAFDFF"></path></g><defs><clipPath id="clip0_912_122"><rect width="276" height="62" fill="white"></rect></clipPath></defs></svg> 