<?xml version="1.0" encoding="UTF-8"?> <svg xmlns="http://www.w3.org/2000/svg" width="717" height="692" viewBox="0 0 717 692" fill="none"><path d="M358.106 552.169C403.295 552.169 439.927 588.8 439.927 633.987C439.927 679.174 403.294 715.806 358.106 715.806C312.917 715.806 276.285 679.174 276.285 633.987C276.285 588.8 312.917 552.169 358.106 552.169Z" stroke="url(#paint0_linear_943_6)" stroke-width="0.757233"></path><path d="M357.749 505.816C415.708 505.816 462.693 552.8 462.693 610.758C462.693 668.715 415.708 715.699 357.749 715.699C299.789 715.699 252.803 668.715 252.803 610.758C252.803 552.8 299.789 505.816 357.749 505.816Z" stroke="url(#paint1_linear_943_6)" stroke-width="0.971233"></path><path d="M357.748 445.915C432.211 445.915 492.575 506.277 492.575 580.738C492.575 655.198 432.211 715.561 357.748 715.561C283.285 715.561 222.921 655.198 222.921 580.738C222.921 506.277 283.285 445.915 357.748 445.915Z" stroke="url(#paint2_linear_943_6)" stroke-width="1.24779"></path><path d="M358.105 389.579C448.09 389.579 521.037 462.524 521.037 552.505C521.037 642.486 448.089 715.43 358.105 715.43C268.121 715.43 195.175 642.486 195.175 552.505C195.175 462.524 268.121 389.579 358.105 389.579Z" stroke="url(#paint3_linear_943_6)" stroke-width="1.50788"></path><path d="M358.105 298.301C473.238 298.301 566.572 391.631 566.572 506.76C566.572 621.889 473.238 715.219 358.105 715.219C242.973 715.219 149.64 621.889 149.64 506.76C149.64 391.632 242.973 298.301 358.105 298.301Z" stroke="url(#paint4_linear_943_6)" stroke-width="1.9293"></path><path d="M358.106 142.843C516.07 142.843 644.124 270.893 644.125 428.851C644.125 586.81 516.07 714.861 358.106 714.861C200.142 714.861 72.0866 586.81 72.0866 428.851C72.0868 270.893 200.142 142.843 358.106 142.843Z" stroke="url(#paint5_linear_943_6)" stroke-width="2.64702"></path><path d="M358.105 1.64679C554.971 1.64679 714.562 161.233 714.562 358.091C714.561 554.949 554.971 714.534 358.105 714.534C161.24 714.534 1.64958 554.949 1.64941 358.091C1.64941 161.233 161.24 1.64689 358.105 1.64679Z" stroke="url(#paint6_linear_943_6)" stroke-width="3.2989"></path><defs><linearGradient id="paint0_linear_943_6" x1="358.106" y1="551.79" x2="358.106" y2="716.184" gradientUnits="userSpaceOnUse"><stop stop-color="#C1DFF9"></stop><stop offset="1" stop-color="#509BDB" stop-opacity="0"></stop></linearGradient><linearGradient id="paint1_linear_943_6" x1="357.748" y1="505.331" x2="357.748" y2="716.184" gradientUnits="userSpaceOnUse"><stop stop-color="#C1DFF9"></stop><stop offset="1" stop-color="#509BDB" stop-opacity="0"></stop></linearGradient><linearGradient id="paint2_linear_943_6" x1="357.748" y1="445.291" x2="357.748" y2="716.184" gradientUnits="userSpaceOnUse"><stop stop-color="#C1DFF9"></stop><stop offset="1" stop-color="#509BDB" stop-opacity="0"></stop></linearGradient><linearGradient id="paint3_linear_943_6" x1="358.106" y1="388.825" x2="358.106" y2="716.184" gradientUnits="userSpaceOnUse"><stop stop-color="#C1DFF9"></stop><stop offset="1" stop-color="#509BDB" stop-opacity="0"></stop></linearGradient><linearGradient id="paint4_linear_943_6" x1="358.106" y1="297.336" x2="358.106" y2="716.184" gradientUnits="userSpaceOnUse"><stop stop-color="#C1DFF9"></stop><stop offset="1" stop-color="#509BDB" stop-opacity="0"></stop></linearGradient><linearGradient id="paint5_linear_943_6" x1="358.106" y1="141.519" x2="358.106" y2="716.184" gradientUnits="userSpaceOnUse"><stop stop-color="#C1DFF9"></stop><stop offset="1" stop-color="#509BDB" stop-opacity="0"></stop></linearGradient><linearGradient id="paint6_linear_943_6" x1="358.106" y1="-0.00262451" x2="358.106" y2="716.184" gradientUnits="userSpaceOnUse"><stop stop-color="#C1DFF9"></stop><stop offset="1" stop-color="#509BDB" stop-opacity="0"></stop></linearGradient></defs></svg> 