<?xml version="1.0" encoding="UTF-8"?> <svg xmlns="http://www.w3.org/2000/svg" width="48" height="48" viewBox="0 0 48 48" fill="none"><path d="M28.8515 18.9862L17.9935 18.5739C17.7992 18.5665 17.6362 18.4967 17.5047 18.3644C17.3738 18.2315 17.3128 18.0549 17.3218 17.8347C17.3327 17.6192 17.4024 17.4499 17.5311 17.3268C17.6596 17.2051 17.8341 17.1481 18.0544 17.1558L30.192 17.6167C30.367 17.624 30.5163 17.6577 30.64 17.7177C30.7637 17.7777 30.8774 17.8636 30.9811 17.9755C31.0848 18.0874 31.1619 18.2073 31.2123 18.3352C31.2628 18.463 31.2847 18.6141 31.2781 18.7885L30.8181 30.9272C30.811 31.1135 30.7413 31.2745 30.6089 31.4101C30.4757 31.5463 30.301 31.612 30.0846 31.6071C29.865 31.5987 29.694 31.5286 29.5718 31.3967C29.4489 31.2641 29.3916 31.088 29.3999 30.8684L29.8128 20.0213L17.8151 31.1411C17.6673 31.2781 17.4983 31.343 17.3079 31.3358C17.1176 31.3286 16.954 31.251 16.817 31.1032C16.68 30.9554 16.6151 30.7864 16.6223 30.596C16.6295 30.4057 16.7071 30.2421 16.8549 30.1051L28.8515 18.9862Z" fill="#2E5272"></path></svg> 